<svg width="20" height="16" viewBox="0 0 20 16" fill="none" xmlns="http://www.w3.org/2000/svg">
<path d="M1.36364 15.5037H4.54545V7.77638L0 4.36729V14.14C0 14.8934 0.610227 15.5037 1.36364 15.5037Z" fill="#2F2F2F"/>
<path d="M15.4545 15.5037H18.6364C19.3898 15.5037 20 14.8934 20 14.14V4.3673L15.4545 7.77639V15.5037Z" fill="#2F2F2F"/>
<path d="M15.4545 1.86731V7.77639L20 4.3673V2.54913C20 0.863902 18.0761 -0.0985982 16.7273 0.912765L15.4545 1.86731Z" fill="#2F2F2F"/>
<path fill-rule="evenodd" clip-rule="evenodd" d="M4.54545 7.77638V1.8673L10 5.95821L15.4545 1.86731V7.77639L10 11.8673L4.54545 7.77638Z" fill="#2F2F2F"/>
<path d="M0 2.54913V4.36729L4.54545 7.77638V1.8673L3.27273 0.912765C1.92386 -0.0985982 0 0.863902 0 2.54913Z" fill="#2F2F2F"/>
</svg>
