<svg width="18" height="18" viewBox="0 0 18 18" fill="none" xmlns="http://www.w3.org/2000/svg">
<path fill-rule="evenodd" clip-rule="evenodd" d="M1.66531 13.027L0.476074 17.3692L4.91965 16.204C6.14406 16.8717 7.52247 17.2236 8.92522 17.2241H8.92883C13.5486 17.2241 17.3092 13.4646 17.3113 8.84453C17.312 6.60532 16.4407 4.50001 14.8584 2.91609C13.2755 1.33217 11.171 0.45959 8.92883 0.458496C4.30832 0.458496 0.548288 4.21742 0.546408 8.83778C0.545937 10.3146 0.931831 11.7563 1.66531 13.027ZM1.96172 8.83822C1.96313 4.99813 5.08845 1.87395 8.93152 1.87395C10.7925 1.87474 12.5416 2.60003 13.8571 3.91644C15.1725 5.23284 15.8965 6.98286 15.8958 8.84388C15.8942 12.6843 12.7689 15.8088 8.92881 15.8088H8.92616C7.6757 15.8082 6.44957 15.4725 5.38013 14.8378L5.1255 14.6869L2.48858 15.3783L3.19258 12.8083L3.02679 12.5449C2.32942 11.4359 1.96115 10.1542 1.96172 8.83822Z" fill="#1E1E1E"/>
<path fill-rule="evenodd" clip-rule="evenodd" d="M6.8339 5.33459C6.67691 4.98591 6.51175 4.97884 6.3626 4.97272C6.24046 4.96754 6.10074 4.96785 5.96117 4.96785C5.82144 4.96785 5.59458 5.02029 5.40274 5.22988C5.21073 5.43947 4.66957 5.94609 4.66957 6.9766C4.66957 8.00712 5.42016 9.00278 5.52472 9.14266C5.62944 9.28238 6.97362 11.4646 9.10263 12.3041C10.8718 13.0018 11.2318 12.863 11.616 12.8281C12 12.7933 12.8551 12.3215 13.0295 11.8325C13.2041 11.3434 13.2041 10.9244 13.1518 10.8368C13.0994 10.7493 12.9598 10.6971 12.7502 10.5924C12.5408 10.4876 11.5111 9.98086 11.3191 9.91099C11.1271 9.84113 10.9875 9.80628 10.8478 10.0159C10.7082 10.2255 10.3071 10.6971 10.1848 10.8368C10.0627 10.9767 9.94051 10.9941 9.73092 10.8894C9.52149 10.7844 8.84689 10.5635 8.04668 9.84992C7.42404 9.29479 7.00377 8.60919 6.88147 8.3996C6.75933 8.19002 6.86844 8.07667 6.97347 7.97226C7.06751 7.87838 7.1829 7.72767 7.28777 7.60537C7.39217 7.48307 7.42718 7.39578 7.49689 7.25621C7.56675 7.11633 7.5319 6.99403 7.47946 6.88931C7.42718 6.7846 7.0201 5.74875 6.8339 5.33459Z" fill="#1E1E1E"/>
</svg>
