<svg width="36" height="24" viewBox="0 0 36 24" fill="none" xmlns="http://www.w3.org/2000/svg">
<mask id="mask0_65_43" style="mask-type:luminance" maskUnits="userSpaceOnUse" x="0" y="0" width="36" height="24">
<path d="M34.8 0H1.2C0.537258 0 0 0.537258 0 1.2V22.8C0 23.4627 0.537258 24 1.2 24H34.8C35.4627 24 36 23.4627 36 22.8V1.2C36 0.537258 35.4627 0 34.8 0Z" fill="white"/>
</mask>
<g mask="url(#mask0_65_43)">
<path d="M34.8 0H1.2C0.537258 0 0 0.537258 0 1.2V22.8C0 23.4627 0.537258 24 1.2 24H34.8C35.4627 24 36 23.4627 36 22.8V1.2C36 0.537258 35.4627 0 34.8 0Z" fill="white"/>
<path fill-rule="evenodd" clip-rule="evenodd" d="M0 22.8H36C36 23.4628 35.4627 24 34.8 24H1.2C0.537258 24 0 23.4628 0 22.8Z" fill="#FF9900"/>
<path d="M28.0339 15.1428C27.9015 15.1088 27.7838 15.1428 27.6613 15.1915C25.5092 16.087 23.2738 16.6613 20.9551 16.9338C20.2443 17.0166 19.5285 17.0701 18.8128 17.0896C17.5088 17.1236 16.2049 17.0506 14.9107 16.8803C14.0381 16.7635 13.1704 16.6029 12.3125 16.3985C10.4987 15.9653 8.7486 15.3424 7.08186 14.5102C6.65046 14.296 6.22887 14.0575 5.80236 13.8288C5.61609 13.7266 5.49843 13.7558 5.40039 13.931V14.0137C5.45922 14.0916 5.50824 14.1792 5.58177 14.2473C7.34655 15.8145 9.33687 16.9971 11.5625 17.7953C12.636 18.1797 13.739 18.462 14.8616 18.6469C15.548 18.7589 16.2343 18.8319 16.9304 18.866C17.0774 18.8708 17.2245 18.8757 17.3716 18.8854C17.4059 18.8854 17.4402 18.8952 17.4745 18.9H18.3422C18.3765 18.8952 18.4109 18.8854 18.4451 18.8854C19.1756 18.866 19.906 18.7978 20.6315 18.6907C21.6806 18.535 22.7101 18.2965 23.715 17.9753C25.1661 17.5081 26.5436 16.8852 27.8035 16.0237C27.9407 15.9313 28.0829 15.8388 28.1956 15.722C28.4064 15.5079 28.3084 15.2158 28.0339 15.1428Z" fill="#FF9900"/>
<path d="M30.6004 13.7187C30.562 13.5157 30.4078 13.4383 30.2347 13.3803C29.9602 13.2884 29.6762 13.2449 29.3875 13.2208C28.858 13.1773 28.3286 13.2014 27.8087 13.2981C27.2312 13.4045 26.6825 13.593 26.1963 13.9314C26.1386 13.9701 26.0808 14.0184 26.0471 14.0764C26.0183 14.1199 26.0134 14.1876 26.0231 14.2408C26.0375 14.3037 26.1049 14.3181 26.1674 14.3133C26.1963 14.3133 26.2252 14.3133 26.2541 14.3085L27.1927 14.207C27.6547 14.1635 28.1168 14.1344 28.5788 14.1683C28.7762 14.1828 28.9687 14.2263 29.1564 14.2746C29.3634 14.3278 29.4548 14.4873 29.4645 14.6952C29.4789 15.0191 29.4067 15.3285 29.3249 15.6379C29.1564 16.2615 28.9254 16.8658 28.6847 17.4653C28.6703 17.5039 28.6511 17.5474 28.6462 17.5861C28.627 17.707 28.6944 17.7795 28.8099 17.7553C28.8773 17.7408 28.9543 17.7021 29.0024 17.6538C29.1805 17.4797 29.3634 17.3057 29.5126 17.1124C30.0277 16.4452 30.331 15.6814 30.5089 14.8596C30.5425 14.7146 30.5668 14.5647 30.5908 14.4197C30.6004 14.1925 30.6004 13.9556 30.6004 13.7187Z" fill="#FF9900"/>
<path d="M21.4476 5.44455C21.4652 5.51963 21.4871 5.59473 21.5179 5.66982C22.2424 7.46301 22.9626 9.26064 23.6916 11.0538C23.753 11.2084 23.7662 11.3365 23.7003 11.4911C23.5774 11.7649 23.4852 12.0476 23.3578 12.317C23.2437 12.5599 23.0636 12.7366 22.8001 12.8117C22.6157 12.8603 22.4269 12.8691 22.2336 12.8515C22.1414 12.8426 22.0492 12.8205 21.957 12.8161C21.834 12.8073 21.7726 12.8647 21.7682 12.9928C21.7638 13.1164 21.7638 13.2401 21.7682 13.3594C21.7726 13.5625 21.8384 13.6553 22.0404 13.6906C22.2468 13.726 22.4532 13.7613 22.664 13.7657C23.292 13.779 23.7926 13.5272 24.1175 12.9751C24.2448 12.7587 24.3634 12.529 24.4557 12.2949C25.3251 10.0822 26.1902 7.86494 27.0553 5.64773C27.0816 5.58146 27.1036 5.51522 27.1124 5.44455C27.1299 5.33855 27.0816 5.28554 26.9762 5.28113C26.7303 5.27672 26.4888 5.28113 26.2429 5.28113C26.1068 5.28113 26.0102 5.34296 25.9619 5.47106C25.9443 5.51963 25.9223 5.57264 25.9048 5.62121L24.6269 9.31806C24.5347 9.58746 24.4425 9.85248 24.3415 10.1396C24.3239 10.0998 24.3151 10.0777 24.3063 10.0556C23.8321 8.73504 23.3578 7.41 22.8836 6.08939C22.8089 5.88182 22.7299 5.66981 22.6508 5.46221C22.6113 5.35178 22.5323 5.28554 22.4137 5.28554C22.1327 5.28113 21.8516 5.27672 21.5706 5.28113C21.474 5.28113 21.4257 5.35178 21.4476 5.44455Z" fill="#2F2F2F"/>
<path d="M15.9107 9.95398C15.8581 9.56533 15.88 9.18106 16.0601 8.81446C16.284 8.35072 16.6661 8.06362 17.1403 7.89577C17.5355 7.75888 17.9483 7.73236 18.3655 7.75444C18.7651 7.77652 19.1559 7.84279 19.5423 7.93555C19.5555 7.93996 19.5731 7.93996 19.5906 7.93996C19.595 7.91788 19.5994 7.90462 19.5994 7.88695C19.5951 7.58221 19.5994 7.27303 19.5863 6.96826C19.5775 6.75184 19.5292 6.53983 19.393 6.36316C19.235 6.16 19.011 6.08932 18.7739 6.05401C18.3172 5.98774 17.8605 6.02308 17.4082 6.10699C17.1184 6.16441 16.8285 6.24391 16.5431 6.319C16.3718 6.3676 16.2972 6.319 16.2928 6.13792C16.2884 6.01867 16.2972 5.89501 16.2928 5.77132C16.2884 5.62558 16.3543 5.52841 16.486 5.48425C16.7056 5.40916 16.9208 5.32522 17.1447 5.26783C17.4916 5.17507 17.8473 5.13091 18.2074 5.11324C18.2469 5.11324 18.282 5.10439 18.3172 5.09998H18.7563C18.8924 5.11765 19.0242 5.13091 19.1559 5.14855C19.4369 5.18833 19.7092 5.26339 19.9551 5.40916C20.3811 5.66092 20.5831 6.05401 20.6533 6.53101C20.6753 6.69001 20.6841 6.84901 20.6841 7.00801V10.9301C20.6841 10.961 20.6841 10.9964 20.6797 11.0317C20.6709 11.1332 20.605 11.1995 20.504 11.2039C20.302 11.2083 20.1044 11.2083 19.9024 11.2039C19.797 11.1995 19.7268 11.1244 19.7048 11.0096C19.6785 10.8771 19.6609 10.7446 19.6389 10.6032C19.6126 10.6209 19.595 10.6342 19.5775 10.6474C19.1427 11.0096 18.6509 11.2481 18.0932 11.332C17.6102 11.4027 17.1359 11.3718 16.7012 11.1288C16.2445 10.8727 15.9854 10.4708 15.9107 9.95398ZM17.5443 10.4133C17.7463 10.4928 17.9527 10.5017 18.1635 10.4796C18.6729 10.4266 19.1252 10.2278 19.538 9.92749C19.5775 9.901 19.595 9.87007 19.595 9.81706C19.5906 9.64483 19.595 9.46816 19.595 9.2959C19.595 9.11923 19.5906 8.94256 19.595 8.76589C19.595 8.70406 19.5775 8.67754 19.516 8.66872C19.2086 8.62897 18.9056 8.57155 18.5982 8.54062C18.2908 8.51413 17.9834 8.52739 17.6848 8.62456C17.3906 8.72173 17.171 8.8984 17.0832 9.20314C17.013 9.44164 17.013 9.68014 17.0876 9.91867C17.1579 10.1616 17.316 10.325 17.5443 10.4133Z" fill="#2F2F2F"/>
<path d="M9.59961 5.57698C9.59961 5.32081 9.64353 5.27224 9.90261 5.27665H10.3285C10.4998 5.28106 10.5832 5.35174 10.6096 5.524C10.6272 5.62558 10.6403 5.72716 10.6579 5.82874C10.6623 5.84641 10.6711 5.85967 10.6755 5.88175C10.7633 5.81548 10.8467 5.74483 10.9345 5.683C11.3517 5.37823 11.8172 5.18389 12.331 5.12206C12.3837 5.11324 12.4364 5.1088 12.4891 5.09998H12.7965C12.915 5.11765 13.038 5.12647 13.1566 5.15299C13.9382 5.31199 14.4564 5.7934 14.7682 6.51775C15.0228 7.10518 15.0887 7.72795 15.0667 8.35954C15.0492 8.9293 14.9394 9.48139 14.6847 9.99373C14.3422 10.6695 13.824 11.1332 13.0731 11.2834C12.2431 11.4468 11.4879 11.2658 10.8292 10.7137C10.8072 10.696 10.7853 10.6739 10.7457 10.643V13.324C10.7457 13.3593 10.7457 13.3991 10.7413 13.4344C10.7369 13.5404 10.6711 13.6155 10.5613 13.6155C10.3022 13.6199 10.0431 13.6199 9.78405 13.6155C9.67866 13.6111 9.61278 13.5404 9.60399 13.43C9.59961 13.3946 9.59961 13.3549 9.59961 13.3196V5.57698ZM10.7413 9.76849C10.7369 9.8215 10.7589 9.85681 10.7984 9.89215C11.2156 10.1881 11.6635 10.3868 12.1773 10.4089C12.9238 10.4442 13.4947 10.1395 13.745 9.35331C13.8635 8.98672 13.8943 8.60689 13.8943 8.22262C13.8943 7.80304 13.8592 7.39228 13.7142 6.99919C13.4771 6.34993 13.0292 6.0805 12.4803 6.04075C11.8611 5.99659 11.3078 6.17767 10.8028 6.53101C10.7589 6.56194 10.7413 6.59284 10.7413 6.65026V8.20936C10.7413 8.73055 10.7457 9.24729 10.7413 9.76849Z" fill="#2F2F2F"/>
</g>
</svg>
