<svg width="36" height="24" viewBox="0 0 36 24" fill="none" xmlns="http://www.w3.org/2000/svg">
<g clip-path="url(#clip0_46_776)">
<path d="M34.8 0H1.2C0.537258 0 0 0.537258 0 1.2V22.8C0 23.4627 0.537258 24 1.2 24H34.8C35.4627 24 36 23.4627 36 22.8V1.2C36 0.537258 35.4627 0 34.8 0Z" fill="white"/>
<path fill-rule="evenodd" clip-rule="evenodd" d="M29.2589 14.4468V14.1715H29.187L29.1044 14.3609L29.0216 14.1715H28.9497V14.4468H29.0006V14.2391L29.078 14.4183H29.1306L29.2083 14.2387V14.4468H29.2589ZM28.8036 14.4468V14.2184H28.8957V14.1719H28.6611V14.2184H28.7532V14.4468H28.8036Z" fill="white"/>
<path fill-rule="evenodd" clip-rule="evenodd" d="M14.8955 15.6285H21.1042V4.47131H14.8955V15.6285Z" fill="#FF5F00"/>
<path fill-rule="evenodd" clip-rule="evenodd" d="M29.4802 10.05C29.4802 13.9688 26.3037 17.1455 22.3851 17.1455C20.7299 17.1455 19.2069 16.5787 18 15.6286C19.6503 14.3293 20.7102 12.3134 20.7102 10.05C20.7102 7.7865 19.6503 5.77056 18 4.47126C19.2069 3.52122 20.7299 2.95435 22.3851 2.95435C26.3037 2.95435 29.4802 6.13104 29.4802 10.05Z" fill="#F79E1B"/>
<path fill-rule="evenodd" clip-rule="evenodd" d="M15.2896 10.05C15.2896 7.7865 16.3495 5.77056 17.9998 4.47126C16.7929 3.52122 15.2699 2.95435 13.6147 2.95435C9.69605 2.95435 6.51953 6.13104 6.51953 10.05C6.51953 13.9688 9.69605 17.1455 13.6147 17.1455C15.2699 17.1455 16.7929 16.5787 17.9998 15.6286C16.3495 14.3293 15.2896 12.3134 15.2896 10.05Z" fill="#EB001B"/>
<path fill-rule="evenodd" clip-rule="evenodd" d="M10.4762 20.9385V19.7775C10.4762 19.3324 10.2071 19.0422 9.7458 19.0422C9.5151 19.0422 9.26523 19.1196 9.09222 19.3711C8.95764 19.1583 8.76543 19.0422 8.47707 19.0422C8.28486 19.0422 8.09262 19.1002 7.93884 19.3131V19.0809H7.53516V20.9385H7.93884V19.913C7.93884 19.584 8.11185 19.4292 8.38095 19.4292C8.65008 19.4292 8.78463 19.6033 8.78463 19.913V20.9385H9.18831V19.913C9.18831 19.584 9.38055 19.4292 9.63045 19.4292C9.89958 19.4292 10.0341 19.6033 10.0341 19.913V20.9385H10.4762ZM16.4545 19.081H15.801V18.5197H15.3973V19.081H15.0321V19.4487H15.3973V20.3004C15.3973 20.7261 15.5703 20.9778 16.0317 20.9778C16.2046 20.9778 16.3969 20.9197 16.5314 20.8423L16.4161 20.4939C16.3008 20.5713 16.1662 20.5907 16.0701 20.5907C15.8779 20.5907 15.801 20.4745 15.801 20.281V19.4487H16.4545V19.081ZM19.8762 19.0422C19.6456 19.0422 19.4918 19.1583 19.3957 19.3131V19.0809H18.992V20.9385H19.3957V19.8936C19.3957 19.584 19.5302 19.4098 19.7801 19.4098C19.857 19.4098 19.9531 19.4292 20.03 19.4485L20.1453 19.0615C20.0684 19.0422 19.9531 19.0422 19.8762 19.0422ZM14.7053 19.2357C14.513 19.1002 14.2439 19.0422 13.9556 19.0422C13.4942 19.0422 13.1867 19.2744 13.1867 19.642C13.1867 19.9517 13.4173 20.1258 13.821 20.1839L14.0133 20.2032C14.2247 20.2419 14.3401 20.3 14.3401 20.3967C14.3401 20.5322 14.1862 20.6289 13.9171 20.6289C13.648 20.6289 13.4366 20.5322 13.302 20.4354L13.1098 20.745C13.3212 20.8998 13.6096 20.9772 13.8979 20.9772C14.4361 20.9772 14.7437 20.7257 14.7437 20.3774C14.7437 20.0484 14.4938 19.8743 14.1094 19.8162L13.9171 19.7969C13.7441 19.7775 13.6096 19.7388 13.6096 19.6227C13.6096 19.4872 13.7441 19.4098 13.9556 19.4098C14.1862 19.4098 14.4169 19.5066 14.5323 19.5646L14.7053 19.2357ZM25.4316 19.0422C25.201 19.0422 25.0472 19.1583 24.9511 19.3131V19.0809H24.5474V20.9385H24.9511V19.8936C24.9511 19.584 25.0856 19.4098 25.3355 19.4098C25.4124 19.4098 25.5085 19.4292 25.5854 19.4485L25.7007 19.0615C25.6238 19.0422 25.5085 19.0422 25.4316 19.0422ZM20.2799 20.0097C20.2799 20.5709 20.6644 20.9772 21.2603 20.9772C21.5294 20.9772 21.7216 20.9192 21.9138 20.7644L21.7216 20.4354C21.5678 20.5515 21.4141 20.6096 21.241 20.6096C20.9143 20.6096 20.6836 20.3774 20.6836 20.0097C20.6836 19.6614 20.9143 19.4292 21.241 19.4098C21.4141 19.4098 21.5678 19.4679 21.7216 19.584L21.9138 19.255C21.7216 19.1002 21.5294 19.0422 21.2603 19.0422C20.6644 19.0422 20.2799 19.4485 20.2799 20.0097ZM24.0091 19.0809H23.6054V19.3131C23.4709 19.1389 23.2787 19.0422 23.0288 19.0422C22.5097 19.0422 22.1061 19.4485 22.1061 20.0097C22.1061 20.5709 22.5097 20.9772 23.0288 20.9772C23.2979 20.9772 23.4901 20.8805 23.6054 20.7063V20.9385H24.0091V19.0809ZM22.529 20.0097C22.529 19.6808 22.7404 19.4098 23.0864 19.4098C23.4132 19.4098 23.6439 19.6614 23.6439 20.0097C23.6439 20.3387 23.4132 20.6096 23.0864 20.6096C22.7404 20.5902 22.529 20.3387 22.529 20.0097ZM17.704 19.0422C17.1658 19.0422 16.7813 19.4292 16.7813 20.0097C16.7813 20.5902 17.1658 20.9772 17.7232 20.9772C17.9924 20.9772 18.2615 20.8998 18.4729 20.7257L18.2807 20.4354C18.1269 20.5515 17.9347 20.6289 17.7425 20.6289C17.4926 20.6289 17.2427 20.5128 17.185 20.1839H18.5498V20.0291C18.5691 19.4292 18.223 19.0422 17.704 19.0422ZM17.704 19.3905C17.9539 19.3905 18.1269 19.5453 18.1654 19.8356H17.2042C17.2427 19.584 17.4157 19.3905 17.704 19.3905ZM27.7191 18.3456H27.3154V19.3131C27.1809 19.1389 26.9887 19.0422 26.7388 19.0422C26.2198 19.0422 25.8161 19.4485 25.8161 20.0097C25.8161 20.5709 26.2198 20.9772 26.7388 20.9772C27.0079 20.9772 27.2001 20.8805 27.3154 20.7063V20.9385H27.7191V18.3456ZM26.239 20.0097C26.239 19.6808 26.4504 19.4098 26.7964 19.4098C27.1232 19.4098 27.3539 19.6614 27.3539 20.0097C27.3539 20.3387 27.1232 20.6096 26.7964 20.6096C26.4504 20.5902 26.239 20.3387 26.239 20.0097ZM12.7445 19.0809H12.3409V19.3131C12.2063 19.1389 12.0141 19.0422 11.7642 19.0422C11.2452 19.0422 10.8415 19.4485 10.8415 20.0097C10.8415 20.5709 11.2452 20.9772 11.7642 20.9772C12.0333 20.9772 12.2255 20.8805 12.3409 20.7063V20.9385H12.7445V19.0809ZM11.2452 20.0097C11.2452 19.6808 11.4566 19.4098 11.8026 19.4098C12.1294 19.4098 12.3601 19.6614 12.3601 20.0097C12.3601 20.3387 12.1294 20.6096 11.8026 20.6096C11.4566 20.5902 11.2452 20.3387 11.2452 20.0097Z" fill="#2F2F2F"/>
<path fill-rule="evenodd" clip-rule="evenodd" d="M28.2931 20.8546V20.8911H28.3261C28.3337 20.8911 28.3397 20.8896 28.3442 20.8866C28.3486 20.8837 28.3509 20.879 28.3509 20.8726C28.3509 20.8667 28.3486 20.8622 28.3442 20.8591C28.3397 20.8562 28.3337 20.8546 28.3261 20.8546H28.2931ZM28.3264 20.829C28.3438 20.829 28.357 20.8329 28.3663 20.8407C28.3757 20.8486 28.3803 20.8591 28.3803 20.8726C28.3803 20.884 28.3766 20.8934 28.3692 20.9007C28.3617 20.908 28.3512 20.9125 28.3374 20.9142L28.3813 20.9659H28.347L28.3064 20.9147H28.2931V20.9659H28.2645V20.829H28.3264ZM28.3179 21.013C28.3336 21.013 28.348 21.01 28.3616 21.004C28.3751 20.9979 28.3868 20.9897 28.397 20.9794C28.4072 20.969 28.4151 20.9568 28.4209 20.9428C28.4267 20.9288 28.4296 20.9139 28.4296 20.8979C28.4296 20.8821 28.4267 20.8672 28.4209 20.8532C28.4151 20.8393 28.4072 20.827 28.397 20.8166C28.3868 20.8063 28.3751 20.7983 28.3616 20.7922C28.348 20.7863 28.3336 20.7834 28.3179 20.7834C28.3021 20.7834 28.2873 20.7863 28.2735 20.7922C28.2597 20.7983 28.2478 20.8063 28.2376 20.8166C28.2274 20.827 28.2195 20.8393 28.2137 20.8532C28.208 20.8672 28.2051 20.8821 28.2051 20.8979C28.2051 20.9139 28.208 20.9288 28.2137 20.9428C28.2195 20.9568 28.2274 20.969 28.2376 20.9794C28.2478 20.9897 28.2597 20.9979 28.2735 21.004C28.2873 21.01 28.3021 21.013 28.3179 21.013ZM28.3179 20.7505C28.3383 20.7505 28.3573 20.7544 28.3753 20.7621C28.3931 20.7699 28.4086 20.7803 28.422 20.7938C28.4352 20.8071 28.4458 20.8228 28.4535 20.8407C28.461 20.8587 28.465 20.8778 28.465 20.8979C28.465 20.9183 28.461 20.9374 28.4535 20.9552C28.4458 20.9729 28.4352 20.9886 28.422 21.0019C28.4086 21.0153 28.3931 21.0259 28.3753 21.0338C28.3573 21.0415 28.3383 21.0456 28.3179 21.0456C28.2972 21.0456 28.2778 21.0415 28.2597 21.0338C28.2417 21.0259 28.2261 21.0153 28.2128 21.0019C28.1996 20.9886 28.1891 20.9729 28.1815 20.9552C28.1737 20.9374 28.1699 20.9183 28.1699 20.8979C28.1699 20.8778 28.1737 20.8587 28.1815 20.8407C28.1891 20.8228 28.1996 20.8071 28.2128 20.7938C28.2261 20.7803 28.2417 20.7699 28.2597 20.7621C28.2778 20.7544 28.2972 20.7505 28.3179 20.7505Z" fill="#2F2F2F"/>
</g>
<defs>
<clipPath id="clip0_46_776">
<rect width="36" height="24" fill="white"/>
</clipPath>
</defs>
</svg>
