<svg width="36" height="24" viewBox="0 0 36 24" fill="none" xmlns="http://www.w3.org/2000/svg">
<g clip-path="url(#clip0_46_774)">
<path d="M34.8 0H1.2C0.537258 0 0 0.537258 0 1.2V22.8C0 23.4627 0.537258 24 1.2 24H34.8C35.4627 24 36 23.4627 36 22.8V1.2C36 0.537258 35.4627 0 34.8 0Z" fill="white"/>
<path d="M21.9724 16.9725C22.0187 16.9648 22.1059 16.9542 22.2332 16.9542C22.5794 16.9542 22.7778 17.1178 22.7778 17.4031C22.7778 17.7107 22.5689 17.8872 22.2045 17.8872C22.1339 17.8872 22.0448 17.8847 21.9724 17.8661V16.9725ZM22.2395 16.7428C22.0823 16.7428 21.9243 16.7567 21.77 16.7847L21.7354 16.7909V18.9914H21.9724V18.0841C22.0363 18.096 22.107 18.0986 22.1918 18.0986C22.4761 18.0986 22.7114 18.0089 22.8541 17.8459C22.9621 17.7272 23.0148 17.5773 23.0148 17.3872C23.0148 17.2016 22.9531 17.0456 22.8364 16.9362C22.7066 16.8097 22.5003 16.7428 22.2395 16.7428Z" fill="#222222"/>
<path d="M25.7677 17.3771L25.3846 18.3955C25.354 18.4754 25.3269 18.555 25.304 18.6228C25.2797 18.5486 25.2528 18.4727 25.2269 18.4045L24.8253 17.4037L24.8149 17.3771H24.5615L25.1521 18.8534C25.168 18.8936 25.1682 18.9047 25.1682 18.9047C25.1682 18.9149 25.16 18.9364 25.1524 18.9554C25.0761 19.1362 24.9766 19.2575 24.9067 19.3273C24.8109 19.4197 24.7069 19.4671 24.6536 19.4871L24.6107 19.5029L24.7227 19.6967L24.7457 19.688C24.7859 19.6728 24.8925 19.6264 25.0113 19.5263C25.2152 19.3484 25.3441 19.0782 25.5392 18.5761L26.022 17.3771H25.7677Z" fill="#222222"/>
<path d="M24.0493 18.4584C24.0493 18.4787 24.0469 18.5088 24.0357 18.5374C23.9898 18.6715 23.8573 18.815 23.6228 18.815C23.5009 18.815 23.3586 18.7425 23.3586 18.5382C23.3586 18.45 23.3874 18.3772 23.4444 18.3218C23.5477 18.2218 23.7412 18.1711 24.02 18.1711L24.049 18.1713L24.0493 18.4584ZM24.2863 18.586V17.9867C24.2863 17.5649 24.0889 17.342 23.7152 17.342C23.5595 17.342 23.3898 17.3892 23.2612 17.4684L23.2372 17.4833L23.3391 17.6594L23.3644 17.6435C23.4579 17.5855 23.5767 17.5535 23.6991 17.5535H23.7048C23.8099 17.5535 23.8919 17.5818 23.9482 17.6375C24.0162 17.7047 24.0492 17.8106 24.0493 17.9602C23.6834 17.9615 23.4192 18.04 23.2636 18.1939C23.1651 18.2914 23.1152 18.4158 23.1152 18.5636C23.1152 18.7866 23.269 19.0265 23.6066 19.0265C23.8424 19.0265 23.9931 18.9128 24.072 18.8293L24.0883 18.9915H24.316L24.3082 18.9427C24.2889 18.8244 24.2863 18.7014 24.2863 18.586Z" fill="#222222"/>
<path d="M12.0362 17.9972L11.9884 18.1673C11.9483 18.309 11.9129 18.4345 11.8823 18.5581C11.8434 18.3756 11.7894 18.1717 11.741 17.9917L11.4198 16.7799L11.414 16.7585H11.2034L10.844 17.9996C10.7798 18.2095 10.7226 18.3989 10.6826 18.5648C10.6518 18.4337 10.6148 18.2876 10.5759 18.1341L10.2274 16.7799L10.2217 16.7585H9.97852L10.5625 18.9696L10.5681 18.9914H10.7753L11.1509 17.7245C11.2163 17.5086 11.2658 17.3389 11.3015 17.1905C11.3333 17.3471 11.3778 17.5191 11.4334 17.723L11.7579 18.9698L11.7637 18.9914H11.9739L12.632 16.7958L12.6434 16.7585H12.399L12.0362 17.9972Z" fill="#222222"/>
<path d="M12.8797 17.9731C12.9389 17.6406 13.1572 17.5214 13.3441 17.5214C13.4628 17.5214 13.5581 17.5573 13.6275 17.6279C13.7301 17.732 13.7533 17.8832 13.7574 17.9731H12.8797ZM13.3633 17.3101C12.9263 17.3101 12.6328 17.6601 12.6328 18.181C12.6328 18.6658 12.9367 18.9914 13.3889 18.9914C13.6731 18.9914 13.8346 18.9184 13.8907 18.8872L13.9254 18.8679L13.823 18.6906L13.7989 18.7015C13.7189 18.7387 13.6099 18.7766 13.408 18.7766C13.0769 18.7766 12.8804 18.5588 12.8671 18.1783H13.9869L13.9942 18.1453C14.0014 18.1122 14.0014 18.0879 14.0014 18.0437C14.0014 17.9842 13.9931 17.7755 13.8853 17.5941C13.7732 17.4055 13.5976 17.3101 13.3633 17.3101Z" fill="#222222"/>
<path d="M15.8416 18.6963C15.7243 18.7504 15.5598 18.7827 15.4015 18.7827C14.8749 18.7827 14.5606 18.4497 14.5606 17.8921C14.5606 17.3131 14.8842 16.9674 15.4264 16.9674C15.5764 16.9674 15.7189 16.9957 15.8279 17.0469L15.8514 17.0579L15.9573 16.8743L15.9257 16.8567C15.8838 16.8338 15.724 16.7589 15.4233 16.7589C14.766 16.7589 14.3242 17.2131 14.3242 17.8889C14.3242 18.7024 14.878 18.9911 15.3521 18.9911C15.6193 18.9911 15.8276 18.9345 15.9337 18.8816L15.968 18.8642L15.8649 18.6857L15.8416 18.6963Z" fill="#222222"/>
<path d="M17.0608 17.342C16.9412 17.342 16.8267 17.3749 16.7304 17.4367C16.6751 17.4685 16.6236 17.5122 16.5798 17.5645V16.7234H16.3428V18.9914H16.5798V18.0152C16.5798 17.9567 16.5823 17.9191 16.5966 17.8761C16.6629 17.69 16.8368 17.5598 17.0192 17.5598C17.3489 17.5598 17.3981 17.8631 17.3981 18.044V18.9914H17.6352V18.028C17.6352 17.375 17.1565 17.342 17.0608 17.342Z" fill="#222222"/>
<path d="M19.8879 17.0333H19.6508V17.3919H19.3926V17.5854H19.6508V18.5095C19.6508 18.6936 19.6852 18.8223 19.7553 18.902C19.8189 18.9834 19.9208 19.0264 20.0499 19.0264C20.1395 19.0264 20.217 19.0124 20.2804 18.9846L20.3184 18.9681L20.2189 18.7956L20.1984 18.8001C20.1625 18.8078 20.119 18.8118 20.0692 18.8118C19.9421 18.8118 19.8879 18.7299 19.8879 18.5382V17.5854H20.3247V17.3919H19.8879V17.0333Z" fill="#222222"/>
<path d="M18.3536 18.3218C18.4567 18.2218 18.6504 18.1711 18.9293 18.1711L18.9582 18.1713L18.9586 18.4584C18.9586 18.4786 18.9562 18.5086 18.9448 18.5374C18.8991 18.6716 18.7666 18.815 18.5319 18.815C18.41 18.815 18.2677 18.7424 18.2677 18.5381C18.2677 18.45 18.2966 18.3772 18.3536 18.3218ZM19.1956 18.5859V17.9866C19.1956 17.5649 18.9981 17.342 18.6243 17.342C18.4591 17.342 18.2823 17.3934 18.1519 17.4794L18.1274 17.4941L18.2305 17.6721L18.2562 17.6548C18.352 17.5894 18.4771 17.5535 18.6083 17.5535H18.6138C18.7192 17.5535 18.8011 17.5817 18.8574 17.6375C18.9254 17.7048 18.9585 17.8105 18.9586 17.9602C18.5926 17.9614 18.3283 18.0399 18.1727 18.1938C18.0743 18.2913 18.0244 18.4158 18.0244 18.5636C18.0244 18.7866 18.1783 19.0264 18.5159 19.0264C18.7515 19.0264 18.9022 18.9126 18.9812 18.8292L18.9974 18.9914H19.2251L19.2173 18.9428C19.1982 18.8248 19.1956 18.7016 19.1956 18.5859Z" fill="#222222"/>
<path d="M16.4358 10.7072C16.384 10.7333 16.3256 10.7485 16.2636 10.7485C16.1202 10.7485 15.9955 10.6694 15.93 10.5528L15.905 10.4979L14.8605 8.20599C14.8493 8.18112 14.8422 8.15295 14.8422 8.12547C14.8422 8.01978 14.9279 7.93419 15.0335 7.93419C15.0764 7.93419 15.116 7.94829 15.1479 7.97223L16.3803 8.8497C16.4705 8.90859 16.578 8.94312 16.6937 8.94312C16.7628 8.94312 16.8285 8.93034 16.89 8.90793L22.6861 6.32817C21.6472 5.10366 19.9361 4.30347 17.9998 4.30347C14.8311 4.30347 12.2627 6.44391 12.2627 9.08448C12.2627 10.5251 13.0354 11.8219 14.2449 12.6983C14.3421 12.7676 14.4056 12.8813 14.4056 13.0099C14.4056 13.0523 14.3965 13.0912 14.3855 13.1317C14.2888 13.4921 14.1342 14.0691 14.1268 14.0961C14.1149 14.1412 14.096 14.1884 14.096 14.236C14.096 14.3414 14.1817 14.4271 14.2873 14.4271C14.3289 14.4271 14.3627 14.4117 14.3978 14.3915L15.6538 13.6664C15.7483 13.6118 15.8483 13.5781 15.9584 13.5781C16.0171 13.5781 16.0738 13.5871 16.1271 13.6034C16.713 13.7719 17.3451 13.8655 17.9998 13.8655C21.1683 13.8655 23.7368 11.725 23.7368 9.08448C23.7368 8.28471 23.5 7.53144 23.0835 6.86904L16.4776 10.6831L16.4358 10.7072Z" fill="#14AB39"/>
</g>
<defs>
<clipPath id="clip0_46_774">
<path d="M0 2C0 0.89543 0.895431 0 2 0H34C35.1046 0 36 0.895431 36 2V22C36 23.1046 35.1046 24 34 24H2C0.895431 24 0 23.1046 0 22V2Z" fill="white"/>
</clipPath>
</defs>
</svg>
