<svg width="36" height="24" viewBox="0 0 36 24" fill="none" xmlns="http://www.w3.org/2000/svg">
<g clip-path="url(#clip0_65_79)">
<rect width="36" height="24" fill="white"/>
<path d="M27.4971 14.3185H27.5146L28.9736 10.6555H30L26.8457 18.0002H25.873L27.0449 15.4309L24.9766 10.6555H26.002L27.4971 14.3185ZM22.5615 10.4894C23.2587 10.4895 23.8095 10.6795 24.2139 11.0539C24.6183 11.4285 24.8184 11.9524 24.8184 12.6125V15.758H23.915V15.05H23.874C23.4814 15.6327 22.9659 15.9249 22.3154 15.925C21.7644 15.925 21.2951 15.758 20.9258 15.425C20.5624 15.1158 20.3574 14.6576 20.3691 14.176C20.3692 13.6469 20.5683 13.2303 20.9609 12.9152C21.3537 12.6001 21.8817 12.4455 22.5381 12.4455C23.1006 12.4455 23.5576 12.553 23.9209 12.7551V12.5353C23.9209 12.2083 23.7803 11.8988 23.5342 11.6848C23.2822 11.4588 22.96 11.3342 22.626 11.3342C22.0984 11.3342 21.6818 11.56 21.377 12.0119L20.5449 11.4826C20.9904 10.8225 21.6647 10.4894 22.5615 10.4894ZM18.0889 8.30097C18.6926 8.28909 19.2791 8.52125 19.707 8.94941C20.5623 9.75808 20.615 11.1193 19.8125 11.9934L19.707 12.1008C19.2674 12.523 18.7278 12.7375 18.0889 12.7375H16.5293V15.758H15.5859V8.30097H18.0889ZM22.6846 13.2189C22.3037 13.219 21.9815 13.3141 21.7236 13.4982C21.4715 13.6826 21.3418 13.915 21.3418 14.1945C21.3419 14.4441 21.46 14.6759 21.6533 14.8185C21.8643 14.9849 22.1221 15.0745 22.3857 15.0685C22.7844 15.0685 23.1659 14.9077 23.4473 14.6223C23.7578 14.325 23.916 13.9738 23.916 13.5695C23.6229 13.3317 23.2122 13.213 22.6846 13.2189ZM16.5293 11.8215H18.1123C18.4641 11.8334 18.8046 11.6905 19.0449 11.4348C19.5373 10.9174 19.5256 10.0846 19.0156 9.58515C18.7753 9.3473 18.4523 9.21699 18.1123 9.21699H16.5293V11.8215Z" fill="#3C4043"/>
<path d="M13.272 12.0829C13.272 11.7916 13.2486 11.5002 13.2017 11.2147H9.22168V12.862H11.5018C11.408 13.3912 11.1032 13.867 10.6578 14.1643V15.2347H12.0176C12.8148 14.4914 13.272 13.3912 13.272 12.0829Z" fill="#4285F4"/>
<path d="M9.22211 16.2695C10.3592 16.2695 11.3205 15.8889 12.0181 15.2348L10.6582 14.1643C10.2772 14.426 9.79068 14.5747 9.22211 14.5747C8.12013 14.5747 7.18815 13.8194 6.85404 12.8085H5.45312V13.9146C6.16824 15.3596 7.62776 16.2695 9.22211 16.2695Z" fill="#34A853"/>
<path d="M6.85401 12.8085C6.67814 12.2792 6.67814 11.7024 6.85401 11.1672V10.067H5.45288C4.84904 11.2742 4.84904 12.7014 5.45288 13.9086L6.85401 12.8085Z" fill="#FBBC04"/>
<path d="M9.22211 9.40102C9.82585 9.38913 10.4061 9.62105 10.8399 10.0433L12.0474 8.81824C11.2795 8.09273 10.2713 7.6943 9.22211 7.70619C7.62776 7.70619 6.16824 8.62199 5.45312 10.0671L6.85404 11.1732C7.18815 10.1563 8.12013 9.40102 9.22211 9.40102Z" fill="#EA4335"/>
</g>
<defs>
<clipPath id="clip0_65_79">
<rect width="36" height="24" fill="white"/>
</clipPath>
</defs>
</svg>
