<svg width="36" height="24" viewBox="0 0 36 24" fill="none" xmlns="http://www.w3.org/2000/svg">
<g clip-path="url(#clip0_46_773)">
<path d="M34.8 0H1.2C0.537258 0 0 0.537258 0 1.2V22.8C0 23.4627 0.537258 24 1.2 24H34.8C35.4627 24 36 23.4627 36 22.8V1.2C36 0.537258 35.4627 0 34.8 0Z" fill="white"/>
<path fill-rule="evenodd" clip-rule="evenodd" d="M22.8696 10.401C22.757 11.1403 22.192 11.1403 21.6453 11.1403H21.3344L21.5526 9.75998C21.5656 9.67661 21.6376 9.61526 21.7221 9.61526H21.8648C22.2369 9.61526 22.5882 9.61526 22.7694 9.82691C22.8779 9.95357 22.9106 10.1416 22.8696 10.401ZM22.6318 8.47205H20.5707C20.4296 8.47205 20.3097 8.57456 20.2877 8.7137L19.4543 13.995C19.4378 14.0991 19.5186 14.1934 19.6238 14.1934H20.6815C20.7801 14.1934 20.864 14.1217 20.8795 14.0245L21.116 12.527C21.1378 12.3879 21.2579 12.2854 21.3987 12.2854H22.0509C23.4086 12.2854 24.1922 11.6289 24.3969 10.3275C24.4891 9.75866 24.4006 9.31148 24.134 8.99837C23.8409 8.65424 23.3214 8.47205 22.6318 8.47205Z" fill="#009CDE"/>
<path fill-rule="evenodd" clip-rule="evenodd" d="M8.16847 10.401C8.05579 11.1403 7.49083 11.1403 6.94417 11.1403H6.63325L6.85144 9.75998C6.86446 9.67661 6.93646 9.61526 7.02097 9.61526H7.16368C7.53574 9.61526 7.88704 9.61526 8.06827 9.82691C8.17672 9.95357 8.20939 10.1416 8.16847 10.401ZM7.93063 8.47205H5.86951C5.72839 8.47205 5.60854 8.57456 5.58649 8.7137L4.75312 13.995C4.73665 14.0991 4.81717 14.1934 4.92265 14.1934H5.90698C6.04783 14.1934 6.16768 14.0909 6.18973 13.952L6.41482 12.527C6.4366 12.3879 6.55672 12.2854 6.69757 12.2854H7.34971C8.70739 12.2854 9.49108 11.6289 9.69571 10.3275C9.78793 9.75866 9.69943 9.31148 9.43288 8.99837C9.13978 8.65424 8.62024 8.47205 7.93063 8.47205Z" fill="#003087"/>
<path fill-rule="evenodd" clip-rule="evenodd" d="M12.7159 12.2969C12.6205 12.8604 12.173 13.2388 11.6019 13.2388C11.3157 13.2388 11.0864 13.1467 10.9392 12.9725C10.7933 12.7999 10.7383 12.5537 10.7845 12.2799C10.8733 11.7212 11.3282 11.3309 11.8905 11.3309C12.1709 11.3309 12.3984 11.4238 12.5485 11.5996C12.6997 11.7767 12.7593 12.0242 12.7159 12.2969ZM14.0914 10.3772H13.1044C13.02 10.3772 12.9479 10.4386 12.9346 10.5222L12.8913 10.7979L12.8225 10.698C12.6086 10.3881 12.1321 10.2843 11.6564 10.2843C10.5661 10.2843 9.63461 11.1102 9.45338 12.2682C9.35903 12.8461 9.49298 13.3982 9.82091 13.7835C10.122 14.1375 10.5517 14.2848 11.0638 14.2848C11.9429 14.2848 12.4303 13.7208 12.4303 13.7208L12.3862 13.9949C12.3697 14.099 12.4502 14.1932 12.556 14.1932H13.4446C13.5857 14.1932 13.7056 14.091 13.7276 13.9518L14.2612 10.5756C14.2777 10.4715 14.1969 10.3772 14.0914 10.3772Z" fill="#003087"/>
<path fill-rule="evenodd" clip-rule="evenodd" d="M27.4161 12.2969C27.3207 12.8604 26.8732 13.2388 26.3021 13.2388C26.0159 13.2388 25.7866 13.1467 25.6393 12.9725C25.4932 12.7999 25.4385 12.5537 25.4847 12.2799C25.5735 11.7212 26.0284 11.3309 26.5907 11.3309C26.8711 11.3309 27.0986 11.4238 27.2487 11.5996C27.3999 11.7767 27.4594 12.0242 27.4161 12.2969ZM28.7916 10.3772H27.8047C27.7201 10.3772 27.6481 10.4386 27.6348 10.5222L27.5915 10.7979L27.5224 10.698C27.3088 10.3881 26.8323 10.2843 26.3566 10.2843C25.2663 10.2843 24.3348 11.1102 24.1536 12.2682C24.0592 12.8461 24.1932 13.3982 24.5211 13.7835C24.8222 14.1375 25.2519 14.2848 25.764 14.2848C26.6431 14.2848 27.1305 13.7208 27.1305 13.7208L27.0863 13.9949C27.0699 14.099 27.1504 14.1932 27.2562 14.1932H28.1448C28.2859 14.1932 28.4058 14.091 28.4278 13.9518L28.9614 10.5756C28.9779 10.4715 28.8971 10.3772 28.7916 10.3772Z" fill="#009CDE"/>
<path fill-rule="evenodd" clip-rule="evenodd" d="M19.3478 10.3773H18.3557C18.2609 10.3773 18.1721 10.4243 18.119 10.5029L16.7504 12.5169L16.1705 10.5815C16.1341 10.4604 16.0225 10.3773 15.896 10.3773H14.921C14.8033 10.3773 14.7203 10.4931 14.7583 10.6044L15.8506 13.8085L14.8232 15.2571C14.7427 15.3708 14.824 15.528 14.9635 15.528H15.9545C16.0483 15.528 16.1362 15.482 16.1899 15.405L19.4889 10.6469C19.5678 10.5329 19.4865 10.3773 19.3478 10.3773Z" fill="#003087"/>
<path fill-rule="evenodd" clip-rule="evenodd" d="M29.9554 8.61716L29.1096 13.9951C29.0931 14.0992 29.1736 14.1935 29.2791 14.1935H30.1301C30.2708 14.1935 30.3908 14.091 30.4127 13.9518L31.247 8.67053C31.2635 8.56643 31.1828 8.47217 31.0772 8.47217H30.1253C30.0404 8.47217 29.9684 8.53349 29.9554 8.61716Z" fill="#009CDE"/>
</g>
<defs>
<clipPath id="clip0_46_773">
<path d="M0 2C0 0.89543 0.895431 0 2 0H34C35.1046 0 36 0.895431 36 2V22C36 23.1046 35.1046 24 34 24H2C0.895431 24 0 23.1046 0 22V2Z" fill="white"/>
</clipPath>
</defs>
</svg>
